<svg width="24" height="24" viewBox="0 0 24 24" fill="none" xmlns="http://www.w3.org/2000/svg">
<path d="M1.2315 9.68025L3.09 11.5388L1.914 12.7148C1.77361 12.8555 1.69484 13.0462 1.695 13.245C1.695 18.9465 6.31275 23.565 12.015 23.565C17.6775 23.565 22.2757 18.9975 22.3342 13.3478C22.3515 13.2319 22.3413 13.1136 22.3046 13.0024C22.2678 12.8912 22.2056 12.7901 22.1227 12.7073L20.9505 11.535L22.8052 9.68025C23.868 8.61675 23.118 6.7875 21.6075 6.7875H18.7537C18.3825 3.39075 15.5122 0.750001 12.0225 0.750001C10.3533 0.748944 8.7425 1.36479 7.49975 2.47922C6.257 3.59364 5.46992 5.12801 5.28975 6.7875H2.43C0.91875 6.7875 0.16875 8.6175 1.2315 9.68025ZM5.25 8.2875V9.7245L5.0775 9.552L4.15125 10.4783L2.29275 8.61975C2.26397 8.59367 2.24449 8.55891 2.23725 8.52075C2.23171 8.48259 2.2369 8.44363 2.25225 8.40825C2.26618 8.37249 2.28982 8.34132 2.3205 8.31825C2.35269 8.29639 2.39113 8.28559 2.43 8.2875H5.25ZM3.1995 13.5503L4.638 12.1125L5.1075 11.709L5.25 11.8515V11.8838L7.587 14.2778L7.635 14.2313L7.665 14.2613L9.6195 12.306L12.0187 9.978L15.8947 13.791L16.365 14.2605L16.3687 14.2568L16.4025 14.2898L17.343 13.2945L18.9292 11.709L19.4512 12.1575L20.8297 13.536C20.673 18.27 16.785 22.065 12.015 22.065C7.2435 22.065 3.36 18.282 3.1995 13.5503ZM21.744 8.61975L19.89 10.4745L18.96 9.5445L18.795 9.7095V8.2875H21.6075C21.66 8.2875 21.693 8.3025 21.7162 8.31825C21.7425 8.33775 21.7687 8.36775 21.7852 8.40825C21.8004 8.4437 21.8053 8.48266 21.7995 8.52075C21.7924 8.5588 21.7732 8.59353 21.7447 8.61975H21.744ZM17.2875 11.1698L16.485 12.0195L16.365 12.1395L12.015 7.7895L8.5665 11.2373L7.6515 12.126L6.75 11.2245V7.50675C6.75278 6.1107 7.30967 4.77286 8.29831 3.78717C9.28694 2.80149 10.6264 2.24861 12.0225 2.25C14.8387 2.25 17.1405 4.461 17.2875 7.2525V11.1705V11.1698Z" fill="white"/>
</svg>
