
<svg width="24" height="24" viewBox="0 0 24 24" fill="none" xmlns="http://www.w3.org/2000/svg">
<path d="M8.4301 5.79345L11.6353 10.835C11.6537 10.8639 11.6695 10.8944 11.6852 10.9248L11.6869 10.928C12.0127 11.5573 13.0573 11.6311 13.5503 11.5873C14.6589 11.4147 17.0354 11.0626 19.1014 10.806C19.6734 10.735 20.0934 11.3646 19.8729 11.8971C18.6121 14.9405 18.429 18.4662 13.146 19.4697C5.76896 20.076 4.1184 13.9453 5.49949 11.3178C6.88058 8.69039 4.60683 6.82086 5.90371 5.52397C6.94121 4.48647 8.02026 5.27133 8.4301 5.79345Z" stroke="black" stroke-width="1.5" stroke-linecap="round"/>
<path d="M6.26305 5.23425L8.85661 2.64111C9.17161 2.32616 9.71014 2.54926 9.71014 2.99469V3.88289C9.71014 4.15903 9.93399 4.38289 10.2101 4.38289H10.7591C11.2046 4.38289 11.4277 4.92146 11.1127 5.23644L9.85359 6.49554" stroke="black" stroke-width="1.5" stroke-linecap="round"/>
<path d="M7.46091 12.3491C7.33067 14.737 8.75824 19.341 15.5104 18.6533" stroke="black" stroke-width="1.5" stroke-linecap="round"/>
<path d="M12.4883 19.6292V21.4006" stroke="black" stroke-width="1.5" stroke-linecap="round"/>
<circle cx="7.00429" cy="6.50343" r="0.50392" fill="black"/>
<path d="M9.73462 21.7576L14.6484 21.7576" stroke="black" stroke-width="1.5" stroke-linecap="round"/>
<path d="M5.7615 5.65808L2.56394 8.48137C2.19785 8.80461 2.46471 9.40705 2.95009 9.35312L5.81328 9.03499" stroke="black" stroke-width="1.5" stroke-linecap="round"/>
</svg>
