<svg width="22" height="24" viewBox="0 0 22 24" fill="none" xmlns="http://www.w3.org/2000/svg">
<path d="M20.3333 7.33334L13.3333 1.19667C12.6916 0.622727 11.8609 0.30542 11 0.30542C10.1391 0.30542 9.30835 0.622727 8.66665 1.19667L1.66666 7.33334C1.29608 7.66476 1.00037 8.07132 0.799206 8.52596C0.59804 8.98059 0.496037 9.47287 0.499989 9.97001V20.1667C0.499989 21.0949 0.868738 21.9852 1.52511 22.6415C2.18149 23.2979 3.07173 23.6667 3.99999 23.6667H18C18.9282 23.6667 19.8185 23.2979 20.4749 22.6415C21.1312 21.9852 21.5 21.0949 21.5 20.1667V9.95834C21.5023 9.46316 21.3995 8.97314 21.1984 8.52063C20.9973 8.06813 20.7024 7.66346 20.3333 7.33334ZM13.3333 21.3333H8.66665V15.5C8.66665 15.1906 8.78957 14.8938 9.00836 14.675C9.22716 14.4563 9.5239 14.3333 9.83332 14.3333H12.1667C12.4761 14.3333 12.7728 14.4563 12.9916 14.675C13.2104 14.8938 13.3333 15.1906 13.3333 15.5V21.3333ZM19.1667 20.1667C19.1667 20.4761 19.0437 20.7728 18.8249 20.9916C18.6062 21.2104 18.3094 21.3333 18 21.3333H15.6667V15.5C15.6667 14.5717 15.2979 13.6815 14.6415 13.0251C13.9852 12.3688 13.0949 12 12.1667 12H9.83332C8.90506 12 8.01482 12.3688 7.35845 13.0251C6.70207 13.6815 6.33332 14.5717 6.33332 15.5V21.3333H3.99999C3.69057 21.3333 3.39382 21.2104 3.17503 20.9916C2.95624 20.7728 2.83332 20.4761 2.83332 20.1667V9.95834C2.83353 9.79269 2.86901 9.62899 2.93741 9.47812C3.0058 9.32725 3.10554 9.19267 3.22999 9.08334L10.23 2.95834C10.4429 2.7713 10.7166 2.66815 11 2.66815C11.2834 2.66815 11.5571 2.7713 11.77 2.95834L18.77 9.08334C18.8944 9.19267 18.9942 9.32725 19.0626 9.47812C19.131 9.62899 19.1664 9.79269 19.1667 9.95834V20.1667Z" fill="url(#paint0_linear_78_445)"/>
<defs>
<linearGradient id="paint0_linear_78_445" x1="11" y1="0.30542" x2="11" y2="23.6667" gradientUnits="userSpaceOnUse">
<stop stop-color="#FF8836"/>
<stop offset="1" stop-color="#FF6800"/>
</linearGradient>
</defs>
</svg>
