<svg width="119" height="137" viewBox="0 0 119 137" fill="none" xmlns="http://www.w3.org/2000/svg">
<path d="M16.7079 84.3435L10.1127 73.6041L3.50505 59.2276C1.29452 54.418 1.43811 48.8554 3.89384 44.1663L14.7876 23.3653C17.3434 18.4849 21.4039 14.5582 26.3671 12.1671L50.1181 0.724557C51.0626 0.269522 52.0974 0.0328009 53.1458 0.0319271L88.8853 0.00214072C90.5435 0.000758756 92.1481 0.58895 93.4126 1.66163L113.682 18.8565C116.803 21.5047 117.831 25.8798 116.215 29.641L107.433 50.0853C105.632 54.2793 102.41 57.7045 98.3341 59.7592L77.1939 70.4157C72.692 72.685 67.7254 73.8799 62.6841 73.9065L26.9633 74.0948C23.8315 74.1113 21.6074 77.151 22.5395 80.1409L22.8326 81.0811C23.2808 82.519 23.2526 84.0631 22.7522 85.4837L22.0537 87.4663C21.6407 88.6386 20.0865 88.875 19.3436 87.8786L16.7079 84.3435Z" fill="url(#paint0_linear_209_2464)"/>
<path d="M23.4177 133.824L28.2105 120.342V115.493H31.0693C31.8541 115.493 32.1624 115.213 32.1624 114.4V111.317C32.1624 110.505 31.8541 110.224 31.0693 110.224H19.0173C18.2325 110.224 17.9242 110.505 17.9242 111.317V114.4C17.9242 115.213 18.2325 115.493 19.0173 115.493H21.9042V120.426L17.8681 133.824C17.5318 134.917 17.6719 135.449 18.8771 135.449H20.9792C22.6049 135.449 22.9132 135.225 23.4177 133.824ZM38.6089 134.496V111.177C38.6089 110.533 38.2725 110.224 37.6559 110.224H34.5728C33.9562 110.224 33.6199 110.533 33.6199 111.177V117.932H30.733C30.1164 117.932 29.78 118.24 29.78 118.885V123.986C29.78 124.631 30.1164 124.939 30.733 124.939H33.6199V134.496C33.6199 135.141 33.9562 135.449 34.5728 135.449H37.6559C38.2725 135.449 38.6089 135.141 38.6089 134.496ZM44.6349 134.496V111.177C44.6349 110.533 44.2986 110.224 43.6819 110.224H40.5989C39.9822 110.224 39.6459 110.533 39.6459 111.177V134.496C39.6459 135.141 39.9822 135.449 40.5989 135.449H43.6819C44.2986 135.449 44.6349 135.141 44.6349 134.496ZM25.9402 135.449H30.761C32.1904 135.449 32.4988 134.777 32.0503 133.459L29.5278 125.892C29.0513 124.519 27.9022 124.547 27.3977 125.92L24.735 133.375C24.2585 134.665 24.5108 135.449 25.9402 135.449Z" fill="url(#paint1_linear_209_2464)"/>
<path d="M52.3706 124.21L58.5648 116.418V112.41C58.5648 110.813 57.9482 110.224 56.3786 110.224H53.8841C52.3146 110.224 51.698 110.813 51.698 112.41V115.465L46.2605 123.481C45.5598 124.519 45.784 125.387 47.1014 125.387H49.6239C51.0533 125.387 51.6419 125.107 52.3706 124.21ZM71.6819 124.434V111.177C71.6819 110.533 71.3456 110.224 70.729 110.224H66.4687C65.8521 110.224 65.5158 110.533 65.5158 111.177V124.434C65.5158 125.079 65.9642 125.387 66.5808 125.387H70.729C71.3456 125.387 71.6819 125.079 71.6819 124.434ZM57.8361 119.249L54.4167 123.566C53.6319 124.547 53.9402 125.387 55.2015 125.387H62.6569C63.9182 125.387 64.1704 124.603 63.4697 123.566L60.5828 119.249C59.8261 118.1 58.733 118.128 57.8361 119.249ZM48.1104 131.582H63.6939L61.3396 134.44C60.723 135.169 60.8911 136.178 62.1524 136.178H65.0113C66.777 136.178 67.3376 135.954 68.5428 134.749L71.6819 131.582V127.602C71.6819 126.817 71.4017 126.509 70.5888 126.509H48.1104C47.2976 126.509 47.0173 126.817 47.0173 127.602V130.488C47.0173 131.273 47.2976 131.582 48.1104 131.582Z" fill="url(#paint2_linear_209_2464)"/>
<path d="M74.2045 119.586V120.146C74.2045 123.818 75.3536 125.556 79.8101 125.556H85.8641C90.3206 125.556 91.4697 123.818 91.4697 120.146V119.586C91.4697 113.195 87.3776 110 83.5378 110H82.1364C78.2965 110 74.2045 113.195 74.2045 119.586ZM99.71 124.603V111.177C99.71 110.533 99.3736 110.224 98.757 110.224H94.4967C93.8801 110.224 93.5438 110.533 93.5438 111.177V124.603C93.5438 125.247 93.8801 125.556 94.4967 125.556H98.757C99.3736 125.556 99.71 125.247 99.71 124.603ZM82.3326 114.933H83.3416C84.6869 114.933 85.8641 116.278 85.8641 118.689V118.941C85.8641 120.118 85.4717 120.623 84.0984 120.623H81.5758C80.2025 120.623 79.8101 120.118 79.8101 118.941V118.689C79.8101 116.278 80.9872 114.933 82.3326 114.933ZM75.9983 136.01H98.757C99.3736 136.01 99.71 135.702 99.71 135.057V132.058C99.71 131.413 99.3736 131.105 98.757 131.105H83.0333L85.1074 128.527C85.6959 127.77 85.5558 126.789 84.2945 126.789H81.4077C79.6419 126.789 79.0813 127.013 77.8761 128.218L75.0453 131.105V135.057C75.0453 135.702 75.3816 136.01 75.9983 136.01Z" fill="url(#paint3_linear_209_2464)"/>
<defs>
<linearGradient id="paint0_linear_209_2464" x1="20.707" y1="4.59285" x2="77.4487" y2="99.6039" gradientUnits="userSpaceOnUse">
<stop stop-color="#FFA63E"/>
<stop offset="1" stop-color="#FF5C00"/>
</linearGradient>
<linearGradient id="paint1_linear_209_2464" x1="31.9865" y1="111.333" x2="40.8292" y2="146.513" gradientUnits="userSpaceOnUse">
<stop stop-color="#FFA63E"/>
<stop offset="1" stop-color="#FF5C00"/>
</linearGradient>
<linearGradient id="paint2_linear_209_2464" x1="31.9865" y1="111.333" x2="40.8292" y2="146.513" gradientUnits="userSpaceOnUse">
<stop stop-color="#FFA63E"/>
<stop offset="1" stop-color="#FF5C00"/>
</linearGradient>
<linearGradient id="paint3_linear_209_2464" x1="31.9865" y1="111.333" x2="40.8292" y2="146.513" gradientUnits="userSpaceOnUse">
<stop stop-color="#FFA63E"/>
<stop offset="1" stop-color="#FF5C00"/>
</linearGradient>
</defs>
</svg>
