<svg width="24" height="24" viewBox="0 0 24 24" fill="none" xmlns="http://www.w3.org/2000/svg">
<path d="M14.3333 7.33334H15.5C15.8094 7.33334 16.1062 7.21043 16.325 6.99163C16.5438 6.77284 16.6667 6.4761 16.6667 6.16668C16.6667 5.85726 16.5438 5.56051 16.325 5.34172C16.1062 5.12293 15.8094 5.00001 15.5 5.00001H14.3333C14.0239 5.00001 13.7272 5.12293 13.5084 5.34172C13.2896 5.56051 13.1667 5.85726 13.1667 6.16668C13.1667 6.4761 13.2896 6.77284 13.5084 6.99163C13.7272 7.21043 14.0239 7.33334 14.3333 7.33334ZM14.3333 12H15.5C15.8094 12 16.1062 11.8771 16.325 11.6583C16.5438 11.4395 16.6667 11.1428 16.6667 10.8333C16.6667 10.5239 16.5438 10.2272 16.325 10.0084C16.1062 9.78959 15.8094 9.66668 15.5 9.66668H14.3333C14.0239 9.66668 13.7272 9.78959 13.5084 10.0084C13.2896 10.2272 13.1667 10.5239 13.1667 10.8333C13.1667 11.1428 13.2896 11.4395 13.5084 11.6583C13.7272 11.8771 14.0239 12 14.3333 12ZM8.50001 7.33334H9.66668C9.9761 7.33334 10.2728 7.21043 10.4916 6.99163C10.7104 6.77284 10.8333 6.4761 10.8333 6.16668C10.8333 5.85726 10.7104 5.56051 10.4916 5.34172C10.2728 5.12293 9.9761 5.00001 9.66668 5.00001H8.50001C8.19059 5.00001 7.89385 5.12293 7.67505 5.34172C7.45626 5.56051 7.33334 5.85726 7.33334 6.16668C7.33334 6.4761 7.45626 6.77284 7.67505 6.99163C7.89385 7.21043 8.19059 7.33334 8.50001 7.33334ZM8.50001 12H9.66668C9.9761 12 10.2728 11.8771 10.4916 11.6583C10.7104 11.4395 10.8333 11.1428 10.8333 10.8333C10.8333 10.5239 10.7104 10.2272 10.4916 10.0084C10.2728 9.78959 9.9761 9.66668 9.66668 9.66668H8.50001C8.19059 9.66668 7.89385 9.78959 7.67505 10.0084C7.45626 10.2272 7.33334 10.5239 7.33334 10.8333C7.33334 11.1428 7.45626 11.4395 7.67505 11.6583C7.89385 11.8771 8.19059 12 8.50001 12ZM22.5 21.3333H21.3333V1.50001C21.3333 1.19059 21.2104 0.893845 20.9916 0.675052C20.7728 0.45626 20.4761 0.333344 20.1667 0.333344H3.83334C3.52392 0.333344 3.22718 0.45626 3.00839 0.675052C2.78959 0.893845 2.66668 1.19059 2.66668 1.50001V21.3333H1.50001C1.19059 21.3333 0.893845 21.4563 0.675052 21.6751C0.45626 21.8938 0.333344 22.1906 0.333344 22.5C0.333344 22.8094 0.45626 23.1062 0.675052 23.325C0.893845 23.5438 1.19059 23.6667 1.50001 23.6667H22.5C22.8094 23.6667 23.1062 23.5438 23.325 23.325C23.5438 23.1062 23.6667 22.8094 23.6667 22.5C23.6667 22.1906 23.5438 21.8938 23.325 21.6751C23.1062 21.4563 22.8094 21.3333 22.5 21.3333ZM13.1667 21.3333H10.8333V16.6667H13.1667V21.3333ZM19 21.3333H15.5V15.5C15.5 15.1906 15.3771 14.8938 15.1583 14.6751C14.9395 14.4563 14.6428 14.3333 14.3333 14.3333H9.66668C9.35726 14.3333 9.06051 14.4563 8.84172 14.6751C8.62293 14.8938 8.50001 15.1906 8.50001 15.5V21.3333H5.00001V2.66668H19V21.3333Z" fill="url(#paint0_linear_78_433)"/>
<defs>
<linearGradient id="paint0_linear_78_433" x1="12" y1="0.333344" x2="12" y2="23.6667" gradientUnits="userSpaceOnUse">
<stop stop-color="#FF8836"/>
<stop offset="1" stop-color="#FF6800"/>
</linearGradient>
</defs>
</svg>
