<svg width="26" height="20" viewBox="0 0 26 20" fill="none" xmlns="http://www.w3.org/2000/svg">
<path d="M13.35 10.2567C13.9725 9.71782 14.4718 9.05136 14.814 8.30252C15.1563 7.55368 15.3334 6.73999 15.3334 5.91666C15.3334 4.36957 14.7188 2.88583 13.6248 1.79187C12.5308 0.69791 11.0471 0.0833285 9.50002 0.0833285C7.95292 0.0833285 6.46919 0.69791 5.37523 1.79187C4.28127 2.88583 3.66669 4.36957 3.66669 5.91666C3.66668 6.73999 3.84379 7.55368 4.186 8.30252C4.52821 9.05136 5.02751 9.71782 5.65002 10.2567C4.01685 10.9962 2.63123 12.1904 1.65883 13.6966C0.686431 15.2028 0.168404 16.9572 0.166687 18.75C0.166687 19.0594 0.289603 19.3562 0.508396 19.575C0.727188 19.7937 1.02393 19.9167 1.33335 19.9167C1.64277 19.9167 1.93952 19.7937 2.15831 19.575C2.3771 19.3562 2.50002 19.0594 2.50002 18.75C2.50002 16.8935 3.23752 15.113 4.55027 13.8002C5.86303 12.4875 7.6435 11.75 9.50002 11.75C11.3565 11.75 13.137 12.4875 14.4498 13.8002C15.7625 15.113 16.5 16.8935 16.5 18.75C16.5 19.0594 16.6229 19.3562 16.8417 19.575C17.0605 19.7937 17.3573 19.9167 17.6667 19.9167C17.9761 19.9167 18.2729 19.7937 18.4916 19.575C18.7104 19.3562 18.8334 19.0594 18.8334 18.75C18.8316 16.9572 18.3136 15.2028 17.3412 13.6966C16.3688 12.1904 14.9832 10.9962 13.35 10.2567ZM9.50002 9.41666C8.80779 9.41666 8.1311 9.21139 7.55552 8.82681C6.97995 8.44222 6.53135 7.8956 6.26644 7.25605C6.00154 6.61651 5.93222 5.91278 6.06727 5.23385C6.20232 4.55491 6.53566 3.93127 7.02515 3.44179C7.51463 2.9523 8.13827 2.61896 8.8172 2.48391C9.49614 2.34887 10.1999 2.41818 10.8394 2.68308C11.479 2.94799 12.0256 3.39659 12.4102 3.97217C12.7947 4.54774 13 5.22443 13 5.91666C13 6.84492 12.6313 7.73516 11.9749 8.39154C11.3185 9.04791 10.4283 9.41666 9.50002 9.41666ZM20.8634 9.79C21.61 8.94921 22.0977 7.91056 22.2678 6.79906C22.4379 5.68756 22.2831 4.55058 21.8221 3.525C21.3611 2.49941 20.6134 1.62892 19.6692 1.01832C18.725 0.40772 17.6245 0.0830277 16.5 0.0833285C16.1906 0.0833285 15.8939 0.206245 15.6751 0.425037C15.4563 0.64383 15.3334 0.940576 15.3334 1.25C15.3334 1.55941 15.4563 1.85616 15.6751 2.07495C15.8939 2.29375 16.1906 2.41666 16.5 2.41666C17.4283 2.41666 18.3185 2.78541 18.9749 3.44179C19.6313 4.09817 20 4.9884 20 5.91666C19.9984 6.52944 19.8359 7.13105 19.5288 7.66132C19.2217 8.19159 18.7807 8.63194 18.25 8.93833C18.077 9.0381 17.9326 9.1806 17.8304 9.35219C17.7283 9.52378 17.6719 9.71871 17.6667 9.91833C17.6618 10.1164 17.7074 10.3124 17.7993 10.488C17.8911 10.6635 18.0262 10.8128 18.1917 10.9217L18.6467 11.225L18.7984 11.3067C20.2046 11.9737 21.3911 13.0287 22.2178 14.3474C23.0446 15.6661 23.4773 17.1936 23.465 18.75C23.465 19.0594 23.5879 19.3562 23.8067 19.575C24.0255 19.7937 24.3223 19.9167 24.6317 19.9167C24.9411 19.9167 25.2379 19.7937 25.4566 19.575C25.6754 19.3562 25.7984 19.0594 25.7984 18.75C25.8079 16.9597 25.3595 15.1966 24.4957 13.6284C23.632 12.0602 22.3816 10.7389 20.8634 9.79Z" fill="url(#paint0_linear_78_439)"/>
<defs>
<linearGradient id="paint0_linear_78_439" x1="12.9826" y1="0.0833282" x2="12.9826" y2="19.9167" gradientUnits="userSpaceOnUse">
<stop stop-color="#FF8836"/>
<stop offset="1" stop-color="#FF6800"/>
</linearGradient>
</defs>
</svg>
