<svg width="24" height="18" viewBox="0 0 24 18" fill="none" xmlns="http://www.w3.org/2000/svg">
<path d="M20.1666 6.08335H19.7933L18.335 2.44335C18.0745 1.79615 17.6266 1.24155 17.0487 0.850736C16.4708 0.459924 15.7893 0.250733 15.0916 0.250014H8.09165C7.28115 0.247695 6.49497 0.526737 5.8673 1.03951C5.23963 1.55229 4.80937 2.26701 4.64998 3.06168L4.04331 6.08335H3.83331C2.90506 6.08335 2.01482 6.4521 1.35844 7.10847C0.702062 7.76485 0.333313 8.65509 0.333313 9.58335V13.0833C0.333313 13.3928 0.456229 13.6895 0.675022 13.9083C0.893814 14.1271 1.19056 14.25 1.49998 14.25H2.66665C2.66665 15.1783 3.0354 16.0685 3.69177 16.7249C4.34815 17.3813 5.23839 17.75 6.16665 17.75C7.0949 17.75 7.98514 17.3813 8.64152 16.7249C9.2979 16.0685 9.66665 15.1783 9.66665 14.25H14.3333C14.3333 15.1783 14.7021 16.0685 15.3584 16.7249C16.0148 17.3813 16.9051 17.75 17.8333 17.75C18.7616 17.75 19.6518 17.3813 20.3082 16.7249C20.9646 16.0685 21.3333 15.1783 21.3333 14.25H22.5C22.8094 14.25 23.1061 14.1271 23.3249 13.9083C23.5437 13.6895 23.6666 13.3928 23.6666 13.0833V9.58335C23.6666 8.65509 23.2979 7.76485 22.6415 7.10847C21.9851 6.4521 21.0949 6.08335 20.1666 6.08335ZM13.1666 2.58335H15.0916C15.3233 2.58544 15.5491 2.65647 15.7403 2.78737C15.9314 2.91826 16.0793 3.10311 16.165 3.31835L17.2733 6.08335H13.1666V2.58335ZM6.93665 3.51668C6.99119 3.24919 7.13781 3.0093 7.35098 2.83876C7.56415 2.66823 7.83038 2.57784 8.10331 2.58335H10.8333V6.08335H6.42331L6.93665 3.51668ZM6.16665 15.4167C5.9359 15.4167 5.71034 15.3483 5.51848 15.2201C5.32662 15.0919 5.17709 14.9097 5.08879 14.6965C5.00048 14.4833 4.97738 14.2487 5.0224 14.0224C5.06741 13.7961 5.17853 13.5882 5.34169 13.4251C5.50485 13.2619 5.71273 13.1508 5.93904 13.1058C6.16535 13.0608 6.39993 13.0839 6.61311 13.1722C6.82629 13.2605 7.0085 13.41 7.13669 13.6018C7.26489 13.7937 7.33331 14.0193 7.33331 14.25C7.33331 14.5594 7.2104 14.8562 6.9916 15.075C6.77281 15.2938 6.47607 15.4167 6.16665 15.4167ZM17.8333 15.4167C17.6026 15.4167 17.377 15.3483 17.1851 15.2201C16.9933 15.0919 16.8438 14.9097 16.7555 14.6965C16.6672 14.4833 16.644 14.2487 16.6891 14.0224C16.7341 13.7961 16.8452 13.5882 17.0084 13.4251C17.1715 13.2619 17.3794 13.1508 17.6057 13.1058C17.832 13.0608 18.0666 13.0839 18.2798 13.1722C18.493 13.2605 18.6752 13.41 18.8034 13.6018C18.9316 13.7937 19 14.0193 19 14.25C19 14.5594 18.8771 14.8562 18.6583 15.075C18.4395 15.2938 18.1427 15.4167 17.8333 15.4167ZM21.3333 11.9167H20.4233C20.0953 11.5558 19.6954 11.2674 19.2494 11.0701C18.8034 10.8727 18.321 10.7708 17.8333 10.7708C17.3456 10.7708 16.8633 10.8727 16.4172 11.0701C15.9712 11.2674 15.5714 11.5558 15.2433 11.9167H8.75665C8.4286 11.5558 8.02875 11.2674 7.58273 11.0701C7.13671 10.8727 6.65437 10.7708 6.16665 10.7708C5.67892 10.7708 5.19659 10.8727 4.75057 11.0701C4.30455 11.2674 3.90469 11.5558 3.57665 11.9167H2.66665V9.58335C2.66665 9.27393 2.78956 8.97718 3.00836 8.75839C3.22715 8.5396 3.52389 8.41668 3.83331 8.41668H20.1666C20.4761 8.41668 20.7728 8.5396 20.9916 8.75839C21.2104 8.97718 21.3333 9.27393 21.3333 9.58335V11.9167Z" fill="url(#paint0_linear_78_435)"/>
<defs>
<linearGradient id="paint0_linear_78_435" x1="12" y1="0.25" x2="12" y2="17.75" gradientUnits="userSpaceOnUse">
<stop stop-color="#FF8836"/>
<stop offset="1" stop-color="#FF6800"/>
</linearGradient>
</defs>
</svg>
