<svg width="22" height="24" viewBox="0 0 22 24" fill="none" xmlns="http://www.w3.org/2000/svg">
<path d="M5.91668 17.8333C6.2261 17.8333 6.52284 17.7104 6.74163 17.4916C6.96043 17.2728 7.08334 16.9761 7.08334 16.6667C7.08907 16.589 7.08907 16.511 7.08334 16.4333C7.07057 16.3603 7.04698 16.2895 7.01334 16.2233C6.98781 16.149 6.9525 16.0784 6.90834 16.0133L6.76834 15.8383C6.65739 15.7321 6.52655 15.6489 6.38334 15.5933C6.16525 15.4907 5.92072 15.4581 5.68334 15.5L5.47334 15.57L5.26334 15.675C5.20222 15.7181 5.14378 15.7648 5.08834 15.815L4.94834 15.99C4.90419 16.055 4.86888 16.1257 4.84334 16.2C4.80971 16.2661 4.78611 16.3369 4.77334 16.41C4.76762 16.4877 4.76762 16.5657 4.77334 16.6433C4.77334 16.9528 4.89626 17.2495 5.11505 17.4683C5.33384 17.6871 5.63059 17.81 5.94001 17.81L5.91668 17.8333ZM15.25 17.8333C15.5594 17.8333 15.8562 17.7104 16.075 17.4916C16.2938 17.2728 16.4167 16.9761 16.4167 16.6667C16.4224 16.589 16.4224 16.511 16.4167 16.4333C16.4039 16.3603 16.3803 16.2895 16.3467 16.2233C16.3211 16.149 16.2858 16.0784 16.2417 16.0133L16.1017 15.8383C15.9883 15.7353 15.8581 15.6524 15.7167 15.5933C15.4326 15.4767 15.114 15.4767 14.83 15.5933C14.6886 15.6524 14.5584 15.7353 14.445 15.8383L14.305 16.0133C14.2609 16.0784 14.2255 16.149 14.2 16.2233C14.1664 16.2895 14.1428 16.3603 14.13 16.4333C14.1243 16.511 14.1243 16.589 14.13 16.6667C14.1313 16.9727 14.2528 17.266 14.4683 17.4833C14.6751 17.6949 14.9545 17.82 15.25 17.8333ZM11.75 3.83334H9.41668C9.10726 3.83334 8.81051 3.95626 8.59172 4.17505C8.37293 4.39385 8.25001 4.69059 8.25001 5.00001C8.25001 5.30943 8.37293 5.60618 8.59172 5.82497C8.81051 6.04376 9.10726 6.16668 9.41668 6.16668H11.75C12.0594 6.16668 12.3562 6.04376 12.575 5.82497C12.7938 5.60618 12.9167 5.30943 12.9167 5.00001C12.9167 4.69059 12.7938 4.39385 12.575 4.17505C12.3562 3.95626 12.0594 3.83334 11.75 3.83334ZM17.5833 0.333344H3.58334C2.65509 0.333344 1.76485 0.702093 1.10847 1.35847C0.452093 2.01485 0.0833435 2.90509 0.0833435 3.83334V17.8333C0.0853729 18.5554 0.310702 19.2592 0.728438 19.8483C1.14617 20.4373 1.73587 20.8826 2.41668 21.1233V22.5C2.41668 22.8094 2.53959 23.1062 2.75839 23.325C2.97718 23.5438 3.27392 23.6667 3.58334 23.6667C3.89276 23.6667 4.18951 23.5438 4.4083 23.325C4.62709 23.1062 4.75001 22.8094 4.75001 22.5V21.3333H16.4167V22.5C16.4167 22.8094 16.5396 23.1062 16.7584 23.325C16.9772 23.5438 17.2739 23.6667 17.5833 23.6667C17.8928 23.6667 18.1895 23.5438 18.4083 23.325C18.6271 23.1062 18.75 22.8094 18.75 22.5V21.1233C19.4308 20.8826 20.0205 20.4373 20.4382 19.8483C20.856 19.2592 21.0813 18.5554 21.0833 17.8333V3.83334C21.0833 2.90509 20.7146 2.01485 20.0582 1.35847C19.4018 0.702093 18.5116 0.333344 17.5833 0.333344ZM18.75 17.8333C18.75 18.1428 18.6271 18.4395 18.4083 18.6583C18.1895 18.8771 17.8928 19 17.5833 19H3.58334C3.27392 19 2.97718 18.8771 2.75839 18.6583C2.53959 18.4395 2.41668 18.1428 2.41668 17.8333V14.3333H18.75V17.8333ZM18.75 12H2.41668V3.83334C2.41668 3.52392 2.53959 3.22718 2.75839 3.00839C2.97718 2.78959 3.27392 2.66668 3.58334 2.66668H17.5833C17.8928 2.66668 18.1895 2.78959 18.4083 3.00839C18.6271 3.22718 18.75 3.52392 18.75 3.83334V12Z" fill="url(#paint0_linear_78_431)"/>
<defs>
<linearGradient id="paint0_linear_78_431" x1="10.5833" y1="0.333344" x2="10.5833" y2="23.6667" gradientUnits="userSpaceOnUse">
<stop stop-color="#FF8836"/>
<stop offset="1" stop-color="#FF6800"/>
</linearGradient>
</defs>
</svg>
