<svg width="24" height="24" viewBox="0 0 24 24" fill="none" xmlns="http://www.w3.org/2000/svg">
<path d="M7.92834 12.56C7.69759 12.56 7.47203 12.6284 7.28017 12.7566C7.08831 12.8848 6.93878 13.067 6.85048 13.2802C6.76217 13.4934 6.73907 13.728 6.78409 13.9543C6.8291 14.1806 6.94022 14.3885 7.10338 14.5516C7.26654 14.7148 7.47442 14.8259 7.70073 14.8709C7.92704 14.9159 8.16162 14.8928 8.3748 14.8045C8.58798 14.7162 8.77019 14.5667 8.89838 14.3748C9.02658 14.183 9.095 13.9574 9.095 13.7267C9.095 13.4172 8.97209 13.1205 8.75329 12.9017C8.5345 12.6829 8.23776 12.56 7.92834 12.56ZM7.92834 7.33333C7.69759 7.33333 7.47203 7.40175 7.28017 7.52994C7.08831 7.65814 6.93878 7.84035 6.85048 8.05353C6.76217 8.26671 6.73907 8.50129 6.78409 8.7276C6.8291 8.95391 6.94022 9.16179 7.10338 9.32495C7.26654 9.48811 7.47442 9.59923 7.70073 9.64424C7.92704 9.68926 8.16162 9.66615 8.3748 9.57785C8.58798 9.48955 8.77019 9.34002 8.89838 9.14816C9.02658 8.9563 9.095 8.73074 9.095 8.49999C9.095 8.19057 8.97209 7.89383 8.75329 7.67503C8.5345 7.45624 8.23776 7.33333 7.92834 7.33333ZM12 9.66666C11.6906 9.66666 11.3938 9.78958 11.175 10.0084C10.9563 10.2272 10.8333 10.5239 10.8333 10.8333V12C10.8333 12.3094 10.9563 12.6062 11.175 12.825C11.3938 13.0437 11.6906 13.1667 12 13.1667C12.3094 13.1667 12.6062 13.0437 12.825 12.825C13.0438 12.6062 13.1667 12.3094 13.1667 12V10.8333C13.1667 10.5239 13.0438 10.2272 12.825 10.0084C12.6062 9.78958 12.3094 9.66666 12 9.66666ZM21.9167 7.99833C21.5142 7.76676 21.0697 7.61759 20.609 7.5595C20.1483 7.50141 19.6807 7.53557 19.2333 7.65999C18.7677 7.7847 18.3342 8.00745 17.9617 8.31333L4.42834 0.484993C4.25098 0.382597 4.04979 0.32869 3.845 0.32869C3.64021 0.32869 3.43902 0.382597 3.26167 0.484993C3.08146 0.58629 2.9314 0.733653 2.82685 0.911998C2.72231 1.09034 2.66702 1.29326 2.66667 1.49999V16.865C1.97817 17.0972 1.3812 17.5421 0.961845 18.1355C0.542489 18.7289 0.322408 19.4401 0.333335 20.1667C0.33301 21.079 0.68892 21.9554 1.32525 22.6091C1.96157 23.2629 2.82802 23.6423 3.74 23.6667H4.41667C8.23953 23.6577 11.9919 22.6373 15.2929 20.7092C18.5939 18.781 21.326 16.0138 23.2117 12.6883C23.6472 11.8927 23.7568 10.959 23.5174 10.0841C23.278 9.20919 22.7083 8.4614 21.9283 7.99833H21.9167ZM5 3.51833L16.5383 10.18C15.2583 12.0901 13.547 13.6724 11.5427 14.7992C9.53833 15.926 7.29713 16.5657 5 16.6667V3.51833ZM21.1817 11.545C19.4497 14.5966 16.9203 17.1196 13.8643 18.8439C10.8083 20.5681 7.34089 21.4287 3.83334 21.3333C3.52392 21.3333 3.22717 21.2104 3.00838 20.9916C2.78958 20.7728 2.66667 20.4761 2.66667 20.1667C2.66576 20.0103 2.69627 19.8554 2.75639 19.7111C2.81652 19.5668 2.90503 19.4361 3.01667 19.3267C3.23585 19.1154 3.52892 18.9982 3.83334 19H4.42834C7.424 18.9988 10.3656 18.2021 12.9525 16.6914C15.5393 15.1807 17.6786 13.0101 19.1517 10.4017C19.2225 10.2737 19.3193 10.1619 19.4358 10.0735C19.5523 9.98512 19.686 9.92204 19.8283 9.88833C20.1225 9.80758 20.4366 9.84528 20.7033 9.99333C20.971 10.1372 21.172 10.3798 21.2635 10.6696C21.355 10.9594 21.3298 11.2735 21.1933 11.545H21.1817Z" fill="url(#paint0_linear_78_429)"/>
<defs>
<linearGradient id="paint0_linear_78_429" x1="11.9872" y1="0.32869" x2="11.9872" y2="23.6667" gradientUnits="userSpaceOnUse">
<stop stop-color="#FF8836"/>
<stop offset="1" stop-color="#FF6800"/>
</linearGradient>
</defs>
</svg>
