<svg width="24" height="24" viewBox="0 0 24 24" fill="none" xmlns="http://www.w3.org/2000/svg">
<path d="M22.1617 16.7833L20.2483 14.87C20.0809 14.7146 19.9661 14.5107 19.9201 14.2869C19.8741 14.0631 19.8991 13.8306 19.9917 13.6217C20.3985 12.7479 20.6134 11.7971 20.6217 10.8333C20.6271 10.7946 20.6271 10.7554 20.6217 10.7167C20.6257 9.32063 20.1933 7.95823 19.385 6.82C17.8229 4.6369 15.7527 2.86702 13.3533 1.66333C11.8313 0.918259 10.1152 0.665098 8.44293 0.938941C6.77061 1.21278 5.22489 2.00006 4.02001 3.19167L3.23835 3.97333C2.03421 5.18278 1.23923 6.73908 0.965108 8.42359C0.690983 10.1081 0.951484 11.8362 1.71001 13.365L1.82668 13.5633C1.20407 14.2092 0.85326 15.0696 0.84668 15.9667C0.851312 16.5857 1.02006 17.1925 1.3357 17.725C1.65134 18.2576 2.10259 18.6969 2.64342 18.9981C3.18424 19.2994 3.7953 19.4518 4.41425 19.4398C5.0332 19.4279 5.6379 19.2519 6.16668 18.93C6.37668 19.0933 6.56335 19.2683 6.77335 19.42C7.21494 19.727 7.69307 19.9779 8.19668 20.1667H8.30168C8.51168 20.2483 8.73335 20.3183 8.96668 20.3883H9.14168C9.50476 20.4816 9.87586 20.5402 10.25 20.5633H10.9733C11.2183 20.5633 11.4517 20.5633 11.6967 20.4933H11.895C12.4686 20.3948 13.026 20.2182 13.5517 19.9683C13.7611 19.884 13.9906 19.8622 14.2122 19.9057C14.4338 19.9492 14.638 20.0561 14.8 20.2133L16.5033 21.9167C17.2424 22.6583 18.2447 23.0777 19.2917 23.0833C20.1699 23.0739 21.0087 22.7174 21.625 22.0917L22.0683 21.6483C22.7119 21.0079 23.0813 20.1424 23.0987 19.2347C23.1161 18.327 22.7801 17.448 22.1617 16.7833ZM4.31168 17.1567C4.08093 17.1567 3.85537 17.0882 3.66351 16.96C3.47166 16.8319 3.32212 16.6496 3.23382 16.4365C3.14552 16.2233 3.12241 15.9887 3.16743 15.7624C3.21245 15.5361 3.32356 15.3282 3.48672 15.165C3.64988 15.0019 3.85776 14.8908 4.08407 14.8458C4.31039 14.8007 4.54496 14.8238 4.75814 14.9121C4.97132 15.0004 5.15353 15.15 5.28173 15.3418C5.40992 15.5337 5.47835 15.7593 5.47835 15.99C5.47835 16.2994 5.35543 16.5962 5.13664 16.815C4.91785 17.0338 4.6211 17.1567 4.31168 17.1567ZM7.92835 17.32L7.62501 17.0867C7.74649 16.7337 7.80955 16.3633 7.81168 15.99C7.81168 15.0617 7.44293 14.1715 6.78655 13.5151C6.13018 12.8587 5.23994 12.49 4.31168 12.49H3.86835L3.76335 12.3033C3.22071 11.212 3.03354 9.97805 3.22815 8.77486C3.42275 7.57167 3.98934 6.45966 4.84835 5.595L5.63001 4.81333C6.50578 3.97397 7.62143 3.42851 8.82169 3.25286C10.022 3.07721 11.2471 3.28012 12.3267 3.83333C14.2865 4.81359 15.9888 6.24018 17.2967 7.99833L7.92835 17.32ZM20.505 20.085L20.0733 20.5283C19.5833 21.0183 18.825 20.925 18.195 20.295L16.4917 18.6033C15.9901 18.105 15.3493 17.7703 14.6537 17.6432C13.9581 17.5162 13.2404 17.6028 12.595 17.8917C12.2272 18.0719 11.8336 18.1939 11.4283 18.2533C11.2054 18.2959 10.9786 18.3155 10.7517 18.3117H10.2383L18.2533 10.2967C18.335 11.096 18.1979 11.9025 17.8567 12.63C17.5678 13.2754 17.4812 13.9931 17.6082 14.6887C17.7353 15.3843 18.07 16.0251 18.5683 16.5267L20.4817 18.4517C20.6986 18.6667 20.8225 18.9582 20.8269 19.2636C20.8313 19.569 20.7157 19.8639 20.505 20.085Z" fill="url(#paint0_linear_78_443)"/>
<defs>
<linearGradient id="paint0_linear_78_443" x1="11.973" y1="0.831596" x2="11.973" y2="23.0833" gradientUnits="userSpaceOnUse">
<stop stop-color="#FF8836"/>
<stop offset="1" stop-color="#FF6800"/>
</linearGradient>
</defs>
</svg>
