<svg width="20" height="24" viewBox="0 0 20 24" fill="none" xmlns="http://www.w3.org/2000/svg">
<path d="M17 3.22667C15.1435 1.37016 12.6255 0.327179 9.99999 0.327179C7.37448 0.327179 4.8565 1.37016 2.99999 3.22667C1.14347 5.08319 0.100494 7.60116 0.100494 10.2267C0.100494 12.8522 1.14347 15.3702 2.99999 17.2267L9.14832 23.3867C9.25678 23.496 9.38581 23.5828 9.52798 23.642C9.67015 23.7013 9.82264 23.7318 9.97666 23.7318C10.1307 23.7318 10.2832 23.7013 10.4253 23.642C10.5675 23.5828 10.6965 23.496 10.805 23.3867L17 17.1683C18.8487 15.3195 19.8874 12.8121 19.8874 10.1975C19.8874 7.58294 18.8487 5.07547 17 3.22667ZM15.3317 15.5L9.99999 20.855L4.66832 15.5C3.61499 14.4457 2.89788 13.1028 2.60763 11.641C2.31739 10.1792 2.46704 8.66421 3.03768 7.28747C3.60831 5.91072 4.57431 4.73407 5.81356 3.90623C7.05281 3.0784 8.50967 2.63655 9.99999 2.63655C11.4903 2.63655 12.9472 3.0784 14.1864 3.90623C15.4257 4.73407 16.3917 5.91072 16.9623 7.28747C17.5329 8.66421 17.6826 10.1792 17.3923 11.641C17.1021 13.1028 16.385 14.4457 15.3317 15.5ZM6.49999 6.64501C5.55816 7.58974 5.02928 8.86934 5.02928 10.2033C5.02928 11.5373 5.55816 12.8169 6.49999 13.7617C7.19971 14.4626 8.09084 14.9413 9.06158 15.1376C10.0323 15.334 11.0394 15.2394 11.9566 14.8655C12.8737 14.4917 13.66 13.8553 14.2169 13.0363C14.7737 12.2173 15.0763 11.252 15.0867 10.2617C15.0919 9.60041 14.9645 8.94481 14.712 8.33363C14.4596 7.72244 14.0871 7.16809 13.6167 6.70334C13.1543 6.23035 12.6029 5.85347 11.9943 5.59438C11.3857 5.3353 10.7319 5.19913 10.0705 5.19371C9.40903 5.18829 8.75305 5.31372 8.14029 5.56279C7.52752 5.81187 6.97006 6.17966 6.49999 6.64501ZM11.9717 12.105C11.5295 12.5539 10.9452 12.8352 10.3186 12.901C9.69204 12.9667 9.06206 12.8128 8.53641 12.4654C8.01076 12.1181 7.62209 11.599 7.43683 10.9968C7.25157 10.3946 7.28125 9.74675 7.52077 9.16402C7.7603 8.58129 8.19481 8.09986 8.75 7.80203C9.3052 7.50421 9.94662 7.40848 10.5646 7.53123C11.1825 7.65397 11.7387 7.98756 12.1379 8.47496C12.5371 8.96236 12.7547 9.57331 12.7533 10.2033C12.7363 10.9235 12.4342 11.6075 11.9133 12.105H11.9717Z" fill="url(#paint0_linear_78_437)"/>
<defs>
<linearGradient id="paint0_linear_78_437" x1="9.99393" y1="0.327179" x2="9.99393" y2="23.7318" gradientUnits="userSpaceOnUse">
<stop stop-color="#FF8836"/>
<stop offset="1" stop-color="#FF6800"/>
</linearGradient>
</defs>
</svg>
