<svg width="22" height="17" viewBox="0 0 22 17" fill="none" xmlns="http://www.w3.org/2000/svg">
<path d="M6.49999 16.3333H11.1667C12.7138 16.3333 14.1975 15.7188 15.2914 14.6248C16.3854 13.5308 17 12.0471 17 10.5V9.33333H18.1667C19.0949 9.33333 19.9852 8.96459 20.6415 8.30821C21.2979 7.65183 21.6667 6.76159 21.6667 5.83333C21.6667 4.90508 21.2979 4.01484 20.6415 3.35846C19.9852 2.70208 19.0949 2.33333 18.1667 2.33333H17V1.16667C17 0.857247 16.8771 0.560501 16.6583 0.341709C16.4395 0.122916 16.1427 0 15.8333 0H1.83332C1.5239 0 1.22716 0.122916 1.00837 0.341709C0.789573 0.560501 0.666656 0.857247 0.666656 1.16667V10.5C0.666656 12.0471 1.28124 13.5308 2.3752 14.6248C3.46916 15.7188 4.95289 16.3333 6.49999 16.3333ZM17 4.66667H18.1667C18.4761 4.66667 18.7728 4.78958 18.9916 5.00838C19.2104 5.22717 19.3333 5.52391 19.3333 5.83333C19.3333 6.14275 19.2104 6.4395 18.9916 6.65829C18.7728 6.87708 18.4761 7 18.1667 7H17V4.66667ZM2.99999 2.33333H14.6667V10.5C14.6667 11.4283 14.2979 12.3185 13.6415 12.9749C12.9852 13.6313 12.0949 14 11.1667 14H6.49999C5.57173 14 4.68149 13.6313 4.02512 12.9749C3.36874 12.3185 2.99999 11.4283 2.99999 10.5V2.33333Z" fill="url(#paint0_linear_78_441)"/>
<defs>
<linearGradient id="paint0_linear_78_441" x1="11.1667" y1="0" x2="11.1667" y2="16.3333" gradientUnits="userSpaceOnUse">
<stop stop-color="#FF8836"/>
<stop offset="1" stop-color="#FF6800"/>
</linearGradient>
</defs>
</svg>
