<svg width="14" height="14" viewBox="0 0 14 14" fill="none" xmlns="http://www.w3.org/2000/svg">
<path d="M7.00003 0.333313C6.12455 0.333313 5.25765 0.505751 4.44881 0.840783C3.63997 1.17581 2.90504 1.66688 2.28599 2.28593C1.03574 3.53618 0.333366 5.23187 0.333366 6.99998C0.327538 8.5394 0.860561 10.0323 1.84003 11.22L0.506699 12.5533C0.414194 12.6471 0.35153 12.7661 0.326614 12.8954C0.301698 13.0248 0.315646 13.1586 0.366699 13.28C0.422071 13.3999 0.511835 13.5007 0.624597 13.5696C0.737359 13.6384 0.868033 13.6722 1.00003 13.6666H7.00003C8.76814 13.6666 10.4638 12.9643 11.7141 11.714C12.9643 10.4638 13.6667 8.76809 13.6667 6.99998C13.6667 5.23187 12.9643 3.53618 11.7141 2.28593C10.4638 1.03569 8.76814 0.333313 7.00003 0.333313ZM7.00003 12.3333H2.6067L3.2267 11.7133C3.35087 11.5884 3.42056 11.4194 3.42056 11.2433C3.42056 11.0672 3.35087 10.8982 3.2267 10.7733C2.35376 9.90134 1.81015 8.75367 1.68849 7.52584C1.56684 6.29801 1.87466 5.06598 2.55952 4.03966C3.24437 3.01334 4.26389 2.25622 5.44438 1.89729C6.62486 1.53837 7.89327 1.59985 9.03351 2.07126C10.1737 2.54266 11.1153 3.39483 11.6977 4.48257C12.28 5.57032 12.4673 6.82634 12.2275 8.03665C11.9876 9.24696 11.3356 10.3367 10.3824 11.1201C9.42921 11.9036 8.23387 12.3323 7.00003 12.3333Z" fill="#AAAAAA"/>
</svg>
