<svg width="24" height="24" viewBox="0 0 24 24" fill="current" xmlns="http://www.w3.org/2000/svg">
<path fill="current" d="M9.23254 6.03748C9.23254 6.23639 9.15353 6.42715 9.01287 6.56781C8.87222 6.70846 8.68146 6.78748 8.48254 6.78748C8.28363 6.78748 8.09287 6.70846 7.95221 6.56781C7.81156 6.42715 7.73254 6.23639 7.73254 6.03748C7.73254 5.83856 7.81156 5.6478 7.95221 5.50715C8.09287 5.36649 8.28363 5.28748 8.48254 5.28748C8.68146 5.28748 8.87222 5.36649 9.01287 5.50715C9.15353 5.6478 9.23254 5.83856 9.23254 6.03748ZM15.555 6.78748C15.754 6.78748 15.9447 6.70846 16.0854 6.56781C16.226 6.42715 16.305 6.23639 16.305 6.03748C16.305 5.83856 16.226 5.6478 16.0854 5.50715C15.9447 5.36649 15.754 5.28748 15.555 5.28748C15.3561 5.28748 15.1654 5.36649 15.0247 5.50715C14.8841 5.6478 14.805 5.83856 14.805 6.03748C14.805 6.23639 14.8841 6.42715 15.0247 6.56781C15.1654 6.70846 15.3561 6.78748 15.555 6.78748ZM10.3155 7.12498H13.6845C13.6826 6.67846 13.5037 6.25094 13.1871 5.93605C12.8705 5.62116 12.4421 5.44457 11.9955 5.44498C11.55 5.44498 11.1227 5.62198 10.8076 5.93704C10.4925 6.2521 10.3155 6.67941 10.3155 7.12498Z" fill="white"/>
<path fill="current" d="M1.23151 9.68025L3.09001 11.5388L1.91401 12.7148C1.77363 12.8555 1.69486 13.0462 1.69501 13.245C1.69501 18.9465 6.31276 23.565 12.015 23.565C17.6775 23.565 22.2758 18.9975 22.3343 13.3478C22.3515 13.2319 22.3413 13.1136 22.3046 13.0024C22.2679 12.8912 22.2056 12.7901 22.1228 12.7073L20.9505 11.535L22.8053 9.68025C23.868 8.61675 23.118 6.7875 21.6075 6.7875H18.7538C18.3825 3.39075 15.5123 0.750001 12.0225 0.750001C10.3533 0.748944 8.74252 1.36479 7.49977 2.47922C6.25701 3.59364 5.46993 5.12801 5.28976 6.7875H2.43001C0.918765 6.7875 0.168765 8.6175 1.23151 9.68025V9.68025ZM5.25001 8.2875V9.7245L5.07751 9.552L4.15126 10.4783L2.29276 8.61975C2.26399 8.59367 2.2445 8.55891 2.23726 8.52075C2.23173 8.48259 2.23692 8.44363 2.25226 8.40825C2.2662 8.37249 2.28983 8.34132 2.32051 8.31825C2.35271 8.29639 2.39114 8.28559 2.43001 8.2875H5.25001ZM3.19951 13.5503L4.63801 12.1125L5.10751 11.709L5.25001 11.8515V11.8838L7.58701 14.2778L7.63501 14.2313L7.66501 14.2613L9.61951 12.306L12.0188 9.978L15.8948 13.791L16.365 14.2605L16.3688 14.2568L16.4025 14.2898L17.343 13.2945L18.9293 11.709L19.4513 12.1575L20.8298 13.536C20.673 18.27 16.785 22.065 12.015 22.065C7.24351 22.065 3.36001 18.282 3.19951 13.5503ZM21.744 8.61975L19.89 10.4745L18.96 9.5445L18.795 9.7095V8.2875H21.6075C21.66 8.2875 21.693 8.3025 21.7163 8.31825C21.7425 8.33775 21.7688 8.36775 21.7853 8.40825C21.8004 8.44369 21.8053 8.48266 21.7995 8.52075C21.7924 8.5588 21.7732 8.59353 21.7448 8.61975H21.744ZM17.2875 11.1698L16.485 12.0195L16.365 12.1395L12.015 7.7895L8.56651 11.2373L7.65151 12.126L6.75001 11.2245V7.50675C6.7528 6.1107 7.30969 4.77286 8.29832 3.78717C9.28696 2.80149 10.6265 2.24861 12.0225 2.25C14.8388 2.25 17.1405 4.461 17.2875 7.2525V11.1705V11.1698Z" fill="white"/>
</svg>
