<svg width="24" height="24" viewBox="0 0 24 24" fill="none" xmlns="http://www.w3.org/2000/svg">
<path d="M14.8125 8.4375C14.9617 8.4375 15.1047 8.37824 15.2102 8.27275C15.3157 8.16726 15.375 8.02418 15.375 7.875C15.375 7.72582 15.3157 7.58274 15.2102 7.47725C15.1047 7.37176 14.9617 7.3125 14.8125 7.3125C14.6633 7.3125 14.5202 7.37176 14.4147 7.47725C14.3092 7.58274 14.25 7.72582 14.25 7.875C14.25 8.02418 14.3092 8.16726 14.4147 8.27275C14.5202 8.37824 14.6633 8.4375 14.8125 8.4375V8.4375ZM9.73499 7.875C9.73499 7.94887 9.72044 8.02201 9.69217 8.09026C9.6639 8.15851 9.62247 8.22051 9.57023 8.27275C9.518 8.32498 9.45599 8.36641 9.38775 8.39468C9.3195 8.42295 9.24635 8.4375 9.17249 8.4375C9.09862 8.4375 9.02547 8.42295 8.95723 8.39468C8.88898 8.36641 8.82697 8.32498 8.77474 8.27275C8.72251 8.22051 8.68107 8.15851 8.6528 8.09026C8.62454 8.02201 8.60999 7.94887 8.60999 7.875C8.60999 7.72582 8.66925 7.58274 8.77474 7.47725C8.88023 7.37176 9.0233 7.3125 9.17249 7.3125C9.32167 7.3125 9.46474 7.37176 9.57023 7.47725C9.67572 7.58274 9.73499 7.72582 9.73499 7.875V7.875ZM11.9925 7.5C11.1675 7.5 10.4925 8.175 10.4925 9H13.4925C13.4925 8.175 12.8175 7.5 11.9925 7.5V7.5Z" fill="black"/>
<path d="M11.4345 3.02548C11.8054 2.99045 12.1788 2.99045 12.5497 3.02548C15.5722 3.30673 17.9482 5.82298 17.9917 8.91298L22.8082 13.7295C23.5747 14.496 23.3137 15.8272 22.2577 16.197C21.6334 16.4184 20.9746 16.5268 20.3122 16.5172C19.8487 16.5123 19.3875 16.4506 18.939 16.3335C18.5336 17.3234 17.9218 18.2154 17.1444 18.9501C16.367 19.6848 15.4419 20.2453 14.4307 20.5942L14.4375 21.375H15.39C15.9375 21.375 16.395 21.765 16.4925 22.2825C16.515 22.395 16.425 22.5 16.305 22.5H7.68C7.56 22.5 7.47 22.395 7.4925 22.2825C7.5975 21.765 8.0475 21.375 8.595 21.375H9.5625L9.555 20.595C8.54476 20.2464 7.62038 19.6866 6.84342 18.9528C6.06645 18.219 5.45474 17.3282 5.049 16.3395C4.60772 16.4525 4.15448 16.5122 3.699 16.5172C3.03638 16.5269 2.37733 16.4185 1.75275 16.197C0.696746 15.8272 0.435747 14.496 1.20225 13.7295L5.9925 8.93998C6.024 5.84623 8.403 3.30748 11.4345 3.02623V3.02548ZM19.3635 14.895C19.6732 14.9722 19.9965 15.015 20.3287 15.018H20.3302C20.8297 15.0247 21.3075 14.943 21.7447 14.7885L19.4212 12.4642C19.5338 13.272 19.5143 14.0927 19.3635 14.8942V14.895ZM10.683 20.8875L10.6875 21.3757H13.3125L13.308 20.886C12.4398 21.0396 11.5513 21.0399 10.683 20.8867V20.8875ZM4.4925 13.5C4.4925 13.1587 4.515 12.8227 4.56 12.4935L2.265 14.7877C2.71953 14.9471 3.19866 15.0248 3.68025 15.0172H3.68175C3.99895 15.0138 4.31473 14.9743 4.623 14.8995C4.536 14.4381 4.49231 13.9695 4.4925 13.5V13.5ZM11.9925 4.49998C11.85 4.49998 11.7082 4.50673 11.5762 4.51948H11.574C10.4583 4.62505 9.42207 5.14256 8.6674 5.97099C7.91274 6.79943 7.49385 7.87935 7.4925 8.99998C7.4925 9.32848 7.3875 9.63823 7.2 9.89623L7.19625 9.90298L7.19175 9.90898C6.41171 10.9435 5.99064 12.2043 5.9925 13.5C5.9925 15.0913 6.62464 16.6174 7.74986 17.7426C8.87508 18.8678 10.4012 19.5 11.9925 19.5C13.5838 19.5 15.1099 18.8678 16.2351 17.7426C17.3604 16.6174 17.9925 15.0913 17.9925 13.5C17.9944 12.2043 17.5733 10.9435 16.7932 9.90898L16.7887 9.90298L16.7842 9.89623C16.5949 9.63572 16.4928 9.32202 16.4925 8.99998C16.4925 7.87896 16.0741 6.7983 15.3192 5.96957C14.5642 5.14085 13.5272 4.62374 12.411 4.51948H12.4087C12.2704 4.50646 12.1315 4.49995 11.9925 4.49998Z" fill="black"/>
</svg>
