<svg width="24" height="24" viewBox="0 0 24 24" fill="none" xmlns="http://www.w3.org/2000/svg">
<path d="M6.81375 3.62775C7.41673 2.74176 8.227 2.01647 9.17412 1.51494C10.1212 1.01341 11.1765 0.750817 12.2482 0.75C13.3106 0.751337 14.3568 1.00991 15.2974 1.50361C16.2381 1.99731 17.0452 2.71146 17.6497 3.585L17.6505 3.5865C19.9415 6.90619 20.9911 10.9263 20.6152 14.9423V14.9445L20.5477 15.6382V15.6405C20.3572 17.7175 19.397 19.6483 17.8556 21.0535C16.3143 22.4587 14.3032 23.2368 12.2175 23.235C7.91025 23.235 4.30125 19.965 3.88875 15.6735V15.6713L3.82875 15.0743V15.072C3.4449 11.084 4.46594 7.08707 6.7155 3.77175L6.717 3.76875L6.81375 3.62775ZM12.2482 2.25C11.421 2.25074 10.6065 2.4535 9.87544 2.84066C9.14439 3.22781 8.51896 3.78764 8.0535 4.4715L8.052 4.47375L7.956 4.61475C5.90353 7.64073 4.97217 11.2885 5.32275 14.928L5.38275 15.528C5.54632 17.2273 6.33721 18.8047 7.60107 19.9524C8.86493 21.1 10.5111 21.7356 12.2182 21.735C13.93 21.7365 15.5804 21.0978 16.8452 19.9444C18.11 18.7911 18.8978 17.2064 19.0537 15.5018V15.498L19.1212 14.8027V14.8013C19.4644 11.1369 18.5072 7.46874 16.4175 4.43925C15.9508 3.76476 15.3278 3.21331 14.6016 2.83206C13.8754 2.45081 13.0684 2.2511 12.2482 2.25Z" fill="black"/>
</svg>
