<svg width="32" height="32" viewBox="0 0 32 32" fill="none" xmlns="http://www.w3.org/2000/svg">
<circle cx="16" cy="16" r="16" fill="#FF6800"/>
<path d="M21.71 15.29L16.71 10.29C16.6149 10.199 16.5028 10.1276 16.38 10.08C16.1365 9.98 15.8635 9.98 15.62 10.08C15.4973 10.1276 15.3851 10.199 15.29 10.29L10.29 15.29C10.1968 15.3833 10.1228 15.4939 10.0723 15.6158C10.0219 15.7376 9.99591 15.8682 9.99591 16C9.99591 16.2663 10.1017 16.5217 10.29 16.71C10.4783 16.8983 10.7337 17.0041 11 17.0041C11.2663 17.0041 11.5217 16.8983 11.71 16.71L15 13.41V21C15 21.2652 15.1054 21.5196 15.2929 21.7071C15.4804 21.8947 15.7348 22 16 22C16.2652 22 16.5196 21.8947 16.7071 21.7071C16.8946 21.5196 17 21.2652 17 21V13.41L20.29 16.71C20.383 16.8037 20.4936 16.8781 20.6154 16.9289C20.7373 16.9797 20.868 17.0058 21 17.0058C21.132 17.0058 21.2627 16.9797 21.3846 16.9289C21.5064 16.8781 21.617 16.8037 21.71 16.71C21.8037 16.6171 21.8781 16.5065 21.9289 16.3846C21.9797 16.2627 22.0058 16.132 22.0058 16C22.0058 15.868 21.9797 15.7373 21.9289 15.6154C21.8781 15.4936 21.8037 15.383 21.71 15.29V15.29Z" fill="white"/>
</svg>
